<?xml version="1.0" standalone="no"?>
<!DOCTYPE svg PUBLIC "-//W3C//DTD SVG 20010904//EN"
 "http://www.w3.org/TR/2001/REC-SVG-20010904/DTD/svg10.dtd">
<svg version="1.0" xmlns="http://www.w3.org/2000/svg"
 width="1080.000000pt" height="1080.000000pt" viewBox="0 0 1080.000000 1080.000000"
 preserveAspectRatio="xMidYMid meet">

<g transform="translate(0.000000,1080.000000) scale(0.100000,-0.100000)"
fill="#000000" stroke="none">
<path d="M7184 7897 c-3 -8 -4 -45 -2 -83 l3 -69 82 -3 c96 -3 96 -2 91 103
l-3 60 -83 3 c-63 2 -84 0 -88 -11z"/>
<path d="M4420 6830 l0 -930 143 -68 c183 -88 327 -171 500 -289 77 -52 141
-93 143 -90 2 2 -59 69 -135 148 -132 137 -260 256 -396 363 -33 27 -70 57
-82 67 l-23 19 0 776 0 776 28 -7 c130 -32 390 -153 532 -247 130 -86 133 -87
70 -29 -137 128 -326 257 -486 332 -111 53 -256 109 -280 109 -12 0 -14 -130
-14 -930z"/>
<path d="M6260 7736 c-230 -81 -489 -237 -665 -401 l-60 -55 95 61 c122 79
328 180 450 220 52 18 101 34 108 37 9 3 12 -156 12 -775 l0 -778 -107 -87
c-145 -115 -321 -277 -418 -384 -124 -136 -127 -143 -40 -81 154 110 322 209
517 305 l197 97 0 933 c1 739 -2 932 -11 931 -7 0 -42 -11 -78 -23z"/>
<path d="M7397 7693 c-4 -3 -7 -52 -7 -108 l0 -101 -38 -37 -38 -37 -177 0
c-164 0 -177 -1 -187 -19 -11 -21 -14 -388 -4 -415 5 -14 35 -16 225 -16 l219
0 0 182 0 182 42 43 42 43 102 0 c84 0 103 3 108 16 3 9 6 67 6 129 0 62 -3
120 -6 129 -5 14 -27 16 -143 16 -76 0 -141 -3 -144 -7z"/>
<path d="M4147 7434 c-4 -4 -7 -427 -7 -939 l0 -932 138 -6 c154 -7 248 -18
402 -48 125 -25 354 -94 468 -142 45 -20 82 -33 82 -31 0 2 -47 34 -104 72
-127 84 -298 169 -431 215 -89 31 -298 82 -365 89 l-25 3 -5 860 -5 860 -70 3
c-39 1 -74 0 -78 -4z"/>
<path d="M6478 6578 l-3 -862 -80 -13 c-260 -44 -522 -146 -744 -293 -51 -33
-91 -63 -89 -65 2 -3 55 16 118 41 236 95 543 159 813 171 l137 6 0 939 0 938
-75 0 -75 0 -2 -862z"/>
<path d="M3745 7141 c-50 -22 -91 -69 -105 -119 -15 -55 -14 -1568 2 -1629 15
-60 69 -115 129 -132 33 -9 208 -11 694 -9 l650 3 -95 37 c-280 107 -598 158
-992 158 l-198 0 0 760 0 760 100 0 100 0 0 95 0 95 -122 0 c-98 0 -131 -4
-163 -19z"/>
<path d="M6950 6105 l0 -655 -194 0 c-304 0 -527 -23 -736 -76 -112 -28 -257
-74 -320 -102 l-45 -21 655 0 c422 -1 668 3 692 9 48 14 94 53 118 101 19 37
20 63 20 719 l0 680 -95 0 -95 0 0 -655z"/>
<path d="M5262 5117 c-6 -6 -12 -28 -14 -47 l-3 -35 -195 -3 c-183 -2 -195 -4
-217 -24 -32 -30 -33 -108 -1 -138 21 -20 32 -20 553 -20 611 0 575 -5 575 86
0 41 -5 59 -20 74 -19 19 -33 20 -215 20 l-195 0 0 38 c0 21 -5 43 -12 50 -17
17 -242 17 -256 -1z"/>
</g>
</svg>
